<svg width="891" height="1024" viewBox="0 0 891 1024" fill="none" xmlns="http://www.w3.org/2000/svg">
<path fill-rule="evenodd" clip-rule="evenodd" d="M0 1024.13L56.338 990.074C112.676 956.021 225.352 887.913 246.594 819.615C267.837 751.318 197.645 682.829 162.621 614.414C127.596 545.999 127.738 477.657 163.047 409.389C198.356 341.12 268.832 272.925 297.108 204.642C325.383 136.359 311.459 67.9875 304.496 33.8019L297.534 -0.383668L424.135 -0.119781L424.064 34.0511C423.993 68.222 423.85 136.564 423.708 204.906C423.566 273.247 423.424 341.589 423.282 409.931C423.139 478.273 422.997 546.615 422.855 614.957C422.713 683.298 422.571 751.64 422.429 819.982C422.286 888.324 422.144 956.666 422.073 990.837L422.002 1025.01L0 1024.13Z" fill="#EEF2D7"/>
<rect x="417" y="6.10352e-05" width="474" height="1024" fill="#EEF2D7"/>
</svg>
