<svg width="1717" height="1661" viewBox="0 0 1717 1661" fill="none" xmlns="http://www.w3.org/2000/svg">
<path fill-rule="evenodd" clip-rule="evenodd" d="M0 1658.58L108.566 1603.48C217.132 1548.38 434.263 1438.19 475.198 1327.69C516.132 1217.19 380.869 1106.38 313.374 995.692C245.88 885.002 246.153 774.43 314.195 663.977C382.236 553.524 518.046 443.19 572.534 332.713C627.022 222.237 600.188 111.617 586.771 56.3078L573.354 0.998191L817.32 1.42598L817.183 56.7119C817.047 111.998 816.773 222.57 816.5 333.141C816.226 443.713 815.953 554.285 815.679 664.857C815.406 775.428 815.132 886 814.859 996.572C814.586 1107.14 814.312 1217.72 814.039 1328.29C813.765 1438.86 813.492 1549.43 813.355 1604.72L813.218 1660L0 1658.58Z" fill="#EEF2D7"/>
<rect x="803.579" y="1.6167" width="913.421" height="1656.75" fill="#EEF2D7"/>
</svg>
